<svg version="1.0" xmlns="http://www.w3.org/2000/svg" viewBox="450 130 1150 1150"><path d="M985 238.9c-51.6 7.5-80.6 62.9-57.5 109.6 32.1 65.1 128 52.5 143.2-18.8 10.7-50.4-34.4-98.2-85.7-90.8m353.5 216.2c-33.9 4.8-70.3 33.5-82.4 64.9-5.5 14.3-6.1 20.6-5.9 61.5.3 32.6.1 38.1-1.5 46-24 117.9-167.2 161.2-249.3 75.3-19.4-20.3-26.8-36-37.9-80.4-9.9-39.5-17.1-53-36.5-68.9-50.8-41.6-128.1-27.8-161 28.6-11.3 19.3-13.1 30.2-12.8 77.5.3 39.9.2 41.4-6.8 62.4-17 51.2-52.7 81.8-114.9 98.5-55.1 14.8-76.4 33.9-89.2 80-26.4 95.1 93.2 174.2 167.5 110.8 32.8-28 41.5-51.8 38.3-104.3-1.6-27.7.3-45.3 7.5-66.8 32.9-99.2 161.8-132.6 236.6-61.4 24.1 23 33.5 40.4 43.3 80.5 5 20.4 9 32.8 13.7 42.2 39.6 78.8 152.1 77.1 189.3-2.9 8.8-18.8 10.3-30.4 8.6-65.6-2.6-54.4 8.7-88 41.3-121.8 22.9-23.8 39.4-32.7 79.6-43.1 36.2-9.4 45.7-13.9 60.6-28.6 43.8-43.1 44.7-109.5 2.1-151.9-25.1-25-58.5-37-90.2-32.5M603 464.4c-61.1 13.2-82.4 87.1-37.6 130.6 42.2 41.1 114.3 18.7 127.1-39.4 11.6-52.7-37.2-102.4-89.5-91.2m764 408.2c-74.2 14.3-88.8 112-21.5 144.4 57.8 27.8 121.9-23.2 107.5-85.5-8.8-38.4-49.1-66-86-58.9M983 1099c-56.9 14.1-77.9 83.7-38 126.3 47.6 50.9 131.9 17.5 132-52.4.1-48.7-46.8-85.6-94-73.9"/></svg>